<svg xmlns="http://www.w3.org/2000/svg" xlink="http://www.w3.org/1999/xlink" version="1.1" id="svg-d4fc" x="0px" y="0px" viewBox="0 0 512 512" style="enable-background:new 0 0 512 512; fill: #ff5126;" space="preserve" class="u-svg-content"><g><g><path d="M512,205.608v-22.109c0-31.706-25.794-57.5-57.5-57.5h-22.109c-5.159,0-9.752,2.613-12.46,6.64h-18.985    c-2.707-4.027-7.294-6.64-12.446-6.64h-30c-5.178,0-9.751,2.638-12.448,6.64H338.5c0-4.142-3.358-7.499-7.5-7.499    c-4.136,0-7.5-3.364-7.5-7.5c0-8.384-3.385-16.413-9.221-22.298c0.05-0.608,0.082-1.221,0.082-1.842    c0-12.406-10.094-22.5-22.5-22.5H220.14c-12.406,0-22.5,10.094-22.5,22.5c0,0.621,0.032,1.234,0.082,1.842    c-5.836,5.885-9.221,13.915-9.221,22.298c0,4.136-3.364,7.5-7.5,7.5c-4.142,0-7.5,3.357-7.5,7.499h-7.554    c-2.707-4.027-7.294-6.64-12.446-6.64h-30c-5.178,0-9.751,2.638-12.448,6.64H92.068c-2.708-4.027-7.3-6.64-12.459-6.64H57.5    c-31.706,0-57.5,25.794-57.5,57.5v22.109c0,5.297,2.79,9.996,7,12.668v130.446c-4.211,2.673-7,7.371-7,12.667v22.11    c0,31.706,25.794,57.5,57.5,57.5h22.109c5.16,0,9.752-2.613,12.46-6.64h18.984c2.707,4.027,7.294,6.64,12.446,6.64h30    c5.152,0,9.74-2.613,12.446-6.64h180.108c2.707,4.027,7.294,6.64,12.446,6.64h30c5.178,0,9.751-2.638,12.448-6.64h18.984    c2.708,4.027,7.3,6.64,12.459,6.64h22.11c31.706,0,57.5-25.794,57.5-57.5V361.39c0-5.297-2.79-9.996-7-12.668V218.276    C509.211,215.603,512,210.905,512,205.608z M14.996,205.616c0.024-0.002,0.04-0.005,0.004-0.007v-22.11    c0-23.435,19.065-42.5,42.5-42.5l22.118-0.006c-3.483,33.961-30.661,61.138-64.621,64.623H14.996z M57.5,425.999    c-23.435,0-42.5-19.065-42.5-42.5l0.082-22.108c33.919,3.521,61.052,30.677,64.535,64.607L57.5,425.999z M153.456,425.999    l-29.911,0.011c-0.025-5.804-0.054-48.91-0.05-210.882c0-4.142-3.357-7.5-7.5-7.5c-4.142,0-7.5,3.358-7.5,7.5    c-0.003,141.158,0.012,188.296,0.045,204.231H93.842C87.841,382.581,58.714,353.36,22,347.218V219.779    c36.719-6.152,65.836-35.365,71.841-72.141H108.5l-0.002,37.489c0,4.142,3.357,7.5,7.5,7.5c4.142,0,7.5-3.357,7.5-7.5    l0.002-44.128l29.954-0.003C153.533,157.184,153.534,410.895,153.456,425.999z M220.14,85.999h71.721c4.136,0,7.5,3.364,7.5,7.5    c0,0.759-0.115,1.491-0.326,2.182c-0.014,0.042-0.027,0.083-0.041,0.125c-0.976,3.01-3.802,5.193-7.133,5.193H220.14    c-3.331,0-6.158-2.184-7.133-5.193c-0.014-0.042-0.026-0.083-0.041-0.125c-0.211-0.691-0.326-1.423-0.326-2.182    C212.64,89.364,216.004,85.999,220.14,85.999z M203.5,117.64c0-2.605,0.592-5.099,1.694-7.341c3.977,3.542,9.213,5.7,14.945,5.7    h71.721c5.732,0,10.968-2.158,14.945-5.7c1.102,2.242,1.694,4.735,1.694,7.341c0,5.758,2.177,11.015,5.747,14.999H197.753    C201.323,128.655,203.5,123.397,203.5,117.64z M388.5,425.999l-29.957,0.011c-0.052-9.385-0.049-111.13-0.047-160.879    c0-4.142-3.357-7.5-7.5-7.5c-4.142,0-7.5,3.357-7.5,7.5c-0.004,102.927,0.006,140.397,0.036,154.229H168.44    c0.099-41.998,0.099-229.726,0-271.721H343.5l-0.003,87.492c0,4.142,3.357,7.5,7.5,7.5c4.142,0,7.5-3.357,7.5-7.5l0.003-94.132    l29.955-0.007C388.506,152.283,388.512,295.057,388.5,425.999z M432.383,140.993l0.008,0.006H454.5    c23.435,0,42.5,19.065,42.5,42.5l-0.082,22.108c-33.921-3.521-61.056-30.682-64.535-64.613    C432.383,140.993,432.383,140.993,432.383,140.993z M418.158,419.359H403.5c0.017-194.167-0.005-253.43-0.043-271.721h14.702    c6,36.777,35.126,65.997,71.841,72.141v127.44C453.276,353.371,424.157,382.588,418.158,419.359z M497,361.389v22.11    c0,23.435-19.065,42.5-42.5,42.5l-22.117,0.005c3.482-33.961,30.659-61.138,64.62-64.622c0,0,0.002,0,0.003,0    C496.982,361.384,496.965,361.387,497,361.389z"></path>
</g>
</g><g><g><path d="M329.719,326.87c-0.515-1.921-1.772-3.559-3.494-4.554l-54.155-31.267c-3.589-2.071-8.175-0.843-10.245,2.745    l-20.845,36.104c-0.995,1.723-1.265,3.77-0.749,5.691c0.515,1.921,1.771,3.56,3.494,4.554l54.155,31.267    c1.182,0.682,2.471,1.006,3.743,1.006c2.592,0,5.113-1.345,6.502-3.751l20.845-36.104    C329.965,330.838,330.235,328.791,329.719,326.87z M298.885,354.67l-41.165-23.767l13.345-23.113l41.165,23.767L298.885,354.67z"></path>
</g>
</g><g><g><path d="M305.438,244.75l-30-51.962c-0.994-1.723-2.633-2.979-4.554-3.494c-1.918-0.516-3.967-0.246-5.691,0.749l-77.942,45    c-3.587,2.071-4.816,6.658-2.745,10.245l30,51.962c1.389,2.406,3.91,3.751,6.502,3.751c1.272,0,2.563-0.324,3.743-1.006    l23.652-13.655c3.587-2.071,4.817-6.658,2.745-10.245c-2.07-3.588-6.659-4.815-10.245-2.745l-17.157,9.905l-22.5-38.972    l64.952-37.5l22.5,38.972l-21.769,12.567c-3.587,2.071-4.816,6.658-2.745,10.245c2.07,3.588,6.659,4.814,10.245,2.745    l28.264-16.317c1.723-0.994,2.979-2.633,3.494-4.554C306.702,248.519,306.433,246.472,305.438,244.75z"></path>
</g>
</g><g></g><g></g><g></g><g></g><g></g><g></g><g></g><g></g><g></g><g></g><g></g><g></g><g></g><g></g><g></g></svg>